# Blender v2.79 (sub 0) OBJ File: 'gascan.obj'
# www.blender.org
mtllib gascan.mtl
o group_1
v -0.787400 5.511813 -1.181105
v -2.755900 3.543306 1.181101
v -0.787400 5.511813 1.181101
v -2.755900 3.543307 -1.181106
v 2.755906 5.511813 1.181101
v -2.755900 -0.000000 1.181100
v 2.755906 -0.000000 1.181100
v 2.755906 5.511813 -1.181105
v 2.755906 0.000000 -1.181106
v -2.755900 0.000000 -1.181106
vt 0.868400 0.413800
vt 0.973700 0.172400
vt 0.973700 0.413800
vt 0.868400 0.172400
vt 0.394700 0.965500
vt 0.026300 0.482800
vt 0.394700 0.482800
vt 0.026300 0.793100
vt 0.157900 0.965500
vt 0.684200 0.275900
vt 0.447400 0.413800
vt 0.447400 0.275900
vt 0.684200 0.413800
vt 0.868400 0.793100
vt 0.500000 0.482800
vt 0.868400 0.482800
vt 0.500000 0.965500
vt 0.736800 0.965500
vt 0.973700 0.482800
vt 0.973700 0.793100
vt 0.394700 0.275900
vt 0.026300 0.413800
vt 0.026300 0.275900
vt 0.394700 0.413800
vn -0.7071 0.7071 0.0000
vn 0.0000 -0.0000 1.0000
vn 0.0000 1.0000 0.0000
vn -0.0000 0.0000 -1.0000
vn -1.0000 -0.0000 0.0000
vn 0.0000 -1.0000 -0.0000
vn 1.0000 0.0000 0.0000
usemtl Material__25
s 1
f 1/1/1 2/2/1 3/3/1
f 2/2/1 1/1/1 4/4/1
f 5/5/2 6/6/2 7/7/2
f 6/6/2 5/5/2 2/8/2
f 2/8/2 5/5/2 3/9/2
f 5/10/3 1/11/3 3/12/3
f 1/11/3 5/10/3 8/13/3
f 4/14/4 9/15/4 10/16/4
f 9/15/4 4/14/4 8/17/4
f 8/17/4 4/14/4 1/18/4
f 4/14/5 6/19/5 2/20/5
f 6/19/5 4/14/5 10/16/5
f 9/21/6 6/22/6 10/23/6
f 6/22/6 9/21/6 7/24/6
f 9/15/7 5/5/7 7/7/7
f 5/5/7 9/15/7 8/17/7
o group_3
v -2.050037 4.805944 0.681907
v -2.189231 4.109975 0.340951
v -1.771650 4.527556 0.681907
v -2.467625 4.388362 0.340951
v -1.632456 5.223531 0.340951
v -1.354069 4.945138 0.340951
v -2.467625 4.388362 -0.340956
v -2.050037 4.805944 -0.681912
v -1.632456 5.223531 -0.340955
v -2.189231 4.109975 -0.340956
v -1.354069 4.945138 -0.340955
v -1.771650 4.527556 -0.681912
vt 0.815800 0.069000
vt 0.763200 0.034500
vt 0.815800 0.034500
vt 0.763200 0.069000
vt 0.552600 0.069000
vt 0.500000 0.034500
vt 0.552600 0.034500
vt 0.500000 0.069000
vt 0.539600 0.105200
vt 0.501400 0.181000
vt 0.501400 0.130500
vt 0.539600 0.206200
vt 0.577700 0.181000
vt 0.577700 0.130500
vt 0.710500 0.069000
vt 0.710500 0.034500
vt 0.657900 0.034500
vt 0.605300 0.069000
vt 0.605300 0.034500
vt 0.657900 0.069000
vt 0.605300 0.069000
vt 0.552600 0.034500
vt 0.605300 0.034500
vt 0.552600 0.069000
vt 0.657900 0.034500
vt 0.657900 0.069000
vn -0.5000 -0.0000 0.8660
vn 0.5000 0.0000 0.8660
vn 0.0000 1.0000 0.0000
vn -1.0000 0.0000 0.0001
vn -1.0000 0.0000 0.0000
vn -1.0000 0.0000 0.0003
vn 1.0000 0.0000 0.0001
vn 1.0000 0.0000 -0.0000
vn 1.0000 0.0000 0.0003
vn 0.5000 0.0000 -0.8660
vn -0.5000 0.0000 -0.8660
usemtl Material__25
s 1
f 11/25/8 12/26/8 13/27/8
f 12/26/8 11/25/8 14/28/8
f 15/29/9 13/30/9 16/31/9
f 13/30/9 15/29/9 11/32/9
f 11/33/10 17/34/10 14/35/10
f 17/34/10 11/33/10 18/36/10
f 18/36/10 11/33/10 19/37/10
f 19/37/10 11/33/10 15/38/10
f 17/39/11 12/26/12 14/28/12
f 12/26/12 17/39/13 20/40/12
f 21/41/14 15/42/15 16/43/15
f 15/42/15 21/41/16 19/44/15
f 18/45/17 21/46/17 22/47/17
f 21/46/17 18/45/17 19/48/17
f 17/39/18 22/49/18 20/40/18
f 22/49/18 17/39/18 18/50/18
o group_2
v 2.362206 6.299212 0.393701
v -0.393700 6.299212 -0.393705
v -0.393700 6.299212 0.393701
v 2.362206 6.299212 -0.393705
v -0.393700 5.511813 0.393701
v -0.393700 5.511813 -0.393705
v 1.968506 5.511813 0.393701
v 2.362206 5.511813 0.393701
v 1.968506 5.905512 0.393701
v 0.000000 5.905512 0.393701
v 0.000000 5.511813 0.393701
v 2.362206 5.511813 -0.393705
v 0.000000 5.511813 -0.393705
v 0.000000 5.905512 -0.393705
v 1.968506 5.905512 -0.393705
v 1.968506 5.511813 -0.393705
vt 0.210500 0.034500
vt 0.026300 0.103400
vt 0.026300 0.034500
vt 0.210500 0.103400
vt 0.394700 0.206900
vt 0.447400 0.137900
vt 0.447400 0.206900
vt 0.394700 0.137900
vt 0.210500 0.206900
vt 0.184200 0.137900
vt 0.210500 0.137900
vt 0.184200 0.172400
vt 0.052600 0.172400
vt 0.026300 0.137900
vt 0.052600 0.137900
vt 0.026300 0.206900
vt 0.236800 0.137900
vt 0.184200 0.206900
vt 0.184200 0.137900
vt 0.236800 0.206900
vt 0.421100 0.206900
vt 0.394700 0.137900
vt 0.421100 0.137900
vt 0.394700 0.172400
vt 0.263200 0.172400
vt 0.263200 0.137900
vt 0.236800 0.034500
vt 0.263200 0.103400
vt 0.236800 0.103400
vt 0.263200 0.034500
vt 0.394700 0.034500
vt 0.394700 0.103400
vt 0.421100 0.103400
vt 0.394700 0.034500
vt 0.421100 0.034500
vt 0.394700 0.103400
vn 0.0000 1.0000 0.0000
vn -1.0000 -0.0000 0.0000
vn 0.0000 -0.0000 1.0000
vn 1.0000 0.0000 0.0000
vn -0.0000 0.0000 -1.0000
vn 0.0000 -1.0000 0.0000
usemtl Material__25
s 1
f 23/51/19 24/52/19 25/53/19
f 24/52/19 23/51/19 26/54/19
f 24/55/20 27/56/20 25/57/20
f 27/56/20 24/55/20 28/58/20
f 23/59/21 29/60/21 30/61/21
f 29/60/21 23/59/21 31/62/21
f 31/62/21 23/59/21 32/63/21
f 32/63/21 27/64/21 33/65/21
f 27/64/21 32/63/21 25/66/21
f 25/66/21 32/63/21 23/59/21
f 34/67/22 23/68/22 30/69/22
f 23/68/22 34/67/22 26/70/22
f 24/71/23 35/72/23 28/73/23
f 35/72/23 24/71/23 36/74/23
f 36/74/23 24/71/23 37/75/23
f 37/75/23 34/67/23 38/76/23
f 34/67/23 37/75/23 26/70/23
f 26/70/23 37/75/23 24/71/23
f 35/77/22 32/78/22 33/79/22
f 32/78/22 35/77/22 36/80/22
f 37/81/24 32/78/24 36/80/24
f 32/78/24 37/81/24 31/82/24
f 37/83/20 29/84/20 31/85/20
f 29/84/20 37/83/20 38/86/20